<svg xmlns="http://www.w3.org/2000/svg" viewBox="0 0 580.69 413.15" height="200" width="281"><defs><style>.cls-1{fill:#1f438b;}.cls-2{fill:#8fbae4;}.cls-3{fill:#1fafdd;}.cls-4{fill:#237dc1;}.cls-5{fill:#214288;}.cls-6{fill:#95908c;}.cls-7{fill:#231f20;}</style></defs><g id="Layer_2" data-name="Layer 2"><polygon class="cls-1" points="278.82 105.03 271.04 112.82 271.04 124.61 278.82 132.39 290.61 132.39 298.39 124.61 298.39 112.82 290.61 105.03 278.82 105.03"/><path class="cls-2" d="M390.33,194.17h-4.9a14.69,14.69,0,0,0,12.68,11.45V202Z" transform="translate(-99.72 -89.13)"/><polygon class="cls-1" points="279.13 134.96 273.06 149.1 296.37 149.1 290.3 134.96 279.13 134.96"/><polygon class="cls-1" points="298.75 148.14 314.14 132.75 299.97 126.66 292.66 133.97 298.75 148.14"/><polygon class="cls-1" points="315.11 130.37 315.11 107.06 300.96 113.13 300.96 124.3 315.11 130.37"/><path class="cls-2" d="M413.24,196.87l-12.56,5.39v3.41A14.67,14.67,0,0,0,413.24,196.87Z" transform="translate(-99.72 -89.13)"/><polygon class="cls-2" points="299.97 110.76 314.14 104.68 298.75 89.29 292.66 103.46 299.97 110.76"/><polygon class="cls-1" points="255.29 132.75 270.68 148.14 276.77 133.97 269.46 126.66 255.29 132.75"/><polygon class="cls-1" points="268.47 124.3 268.47 113.13 254.32 107.06 254.32 130.37 268.47 124.3"/><polygon class="cls-1" points="255.29 104.68 269.46 110.76 276.77 103.46 270.68 89.29 255.29 104.68"/><polygon class="cls-1" points="290.3 102.47 296.37 88.32 273.06 88.32 279.13 102.47 290.3 102.47"/><path class="cls-2" d="M394.2,177.46A14.67,14.67,0,0,0,385.08,191c0,.19,0,.37,0,.56H390l6.07-14.14Z" transform="translate(-99.72 -89.13)"/><path class="cls-3" d="M344,202.79a40.8,40.8,0,0,1,35.35-35.35V157.26a50.93,50.93,0,0,0-45.53,45.53Z" transform="translate(-99.72 -89.13)"/><path class="cls-3" d="M389.49,167.44a40.8,40.8,0,0,1,35.35,35.35H435a50.93,50.93,0,0,0-45.53-45.53Z" transform="translate(-99.72 -89.13)"/><path class="cls-3" d="M379.38,248.25A40.8,40.8,0,0,1,344,212.9H333.85a50.93,50.93,0,0,0,45.53,45.53Z" transform="translate(-99.72 -89.13)"/><path class="cls-3" d="M424.84,212.9a40.8,40.8,0,0,1-35.35,35.35v10.18A50.93,50.93,0,0,0,435,212.9Z" transform="translate(-99.72 -89.13)"/><path class="cls-4" d="M437.28,162.14l-7.15,7.16a59.67,59.67,0,0,1,0,77.09l7.15,7.16a69.69,69.69,0,0,0,0-91.41Z" transform="translate(-99.72 -89.13)"/><path class="cls-4" d="M345.89,162.15a59.67,59.67,0,0,1,77.09,0l7.16-7.15a69.69,69.69,0,0,0-91.41,0Z" transform="translate(-99.72 -89.13)"/><path class="cls-4" d="M423,253.54a59.64,59.64,0,0,1-77.09,0l-7.16,7.16a69.72,69.72,0,0,0,91.41,0Z" transform="translate(-99.72 -89.13)"/><path class="cls-4" d="M338.74,246.39a59.64,59.64,0,0,1,0-77.09l-7.16-7.16a69.72,69.72,0,0,0,0,91.41Z" transform="translate(-99.72 -89.13)"/><path class="cls-5" d="M389.49,130.15a78,78,0,0,1,72.64,72.64h10.13A88.11,88.11,0,0,0,389.49,120Z" transform="translate(-99.72 -89.13)"/><path class="cls-5" d="M306.74,202.79a78,78,0,0,1,72.64-72.64V120a88.1,88.1,0,0,0-82.77,82.77Z" transform="translate(-99.72 -89.13)"/><path class="cls-5" d="M379.38,285.54a78,78,0,0,1-72.64-72.64H296.61a88.09,88.09,0,0,0,82.77,82.77Z" transform="translate(-99.72 -89.13)"/><path class="cls-5" d="M462.13,212.9a78,78,0,0,1-72.64,72.64v10.13a88.1,88.1,0,0,0,82.77-82.77Z" transform="translate(-99.72 -89.13)"/><path class="cls-5" d="M557.55,313.79l-74.3-54.28A8,8,0,0,0,472,261.25l-.19.26L465.61,257a94.59,94.59,0,0,1-9.46,13l6.22,4.54-.19.25A8,8,0,0,0,463.93,286l74.3,54.28a8,8,0,0,0,11.23-1.75L559.3,325A8,8,0,0,0,557.55,313.79Z" transform="translate(-99.72 -89.13)"/><path class="cls-6" d="M635.13,168.86A11.16,11.16,0,0,0,625,175.47H611.63l-25-25A5.16,5.16,0,0,0,583,149H567.8l-24.15-24.14A5.16,5.16,0,0,0,540,123.3H523.36L496.71,96.65a5.15,5.15,0,0,0-3.65-1.51H336.47a11.17,11.17,0,1,0,0,10.33H490.92l17.84,17.83H477.35a11.18,11.18,0,1,0,0,10.33h60.51L553.2,149h-48a11.18,11.18,0,1,0,0,10.33h75.64l25,25a5.15,5.15,0,0,0,3.65,1.51h16.13a11.15,11.15,0,1,0,9.51-16.94Z" transform="translate(-99.72 -89.13)"/><path class="cls-6" d="M565.66,168.86a11.16,11.16,0,0,0-10.18,6.61h-30a11.2,11.2,0,1,0-.66,10.33h31.36a11.15,11.15,0,1,0,9.51-16.94Z" transform="translate(-99.72 -89.13)"/><path class="cls-6" d="M659.54,196.68a11.14,11.14,0,0,0-9.85,6H549.85a11.17,11.17,0,1,0,0,10.33h72.82L604.48,231.2H518.24a11.17,11.17,0,1,0,0,10.32H582L567.61,255.9H538.68a11.17,11.17,0,1,0,0,10.32h31.07a5.14,5.14,0,0,0,3.65-1.51l23.19-23.19h10a5.15,5.15,0,0,0,3.65-1.51l27-27h12.42a11.15,11.15,0,1,0,9.85-16.33Z" transform="translate(-99.72 -89.13)"/><path class="cls-6" d="M281.31,143a11.13,11.13,0,0,0-9.85,6h-22.8a11.18,11.18,0,1,0,0,10.33h22.8A11.15,11.15,0,1,0,281.31,143Z" transform="translate(-99.72 -89.13)"/><path class="cls-6" d="M307.49,116.67a11.13,11.13,0,0,0-9.85,6H227.06a5.17,5.17,0,0,0-3.65,1.51l-50.86,50.87H160.31a5.14,5.14,0,0,0-3.65,1.51l-26.28,26.28h-8.89a11.17,11.17,0,1,0-.18,10.32H222.08a11.16,11.16,0,1,0-.18-10.32H145l17.46-17.46h86a11.18,11.18,0,1,0,0-10.33H187.15l42-42.06h68.44a11.15,11.15,0,1,0,9.85-16.33Z" transform="translate(-99.72 -89.13)"/><path class="cls-6" d="M256.9,221.61a11.13,11.13,0,0,0-9.85,6H212.77a11.18,11.18,0,1,0,0,10.33h34.28a11.15,11.15,0,1,0,9.85-16.33Z" transform="translate(-99.72 -89.13)"/><path class="cls-6" d="M450.29,300.51a11.13,11.13,0,0,0-9.85,6H283.82l-14.46-14.46h26.51a11.18,11.18,0,1,0,0-10.33h-59l-16.08-16.09h46.38a11.17,11.17,0,1,0,0-10.32H192.23L166,229.13a5.15,5.15,0,0,0-3.65-1.52h-16a11.18,11.18,0,1,0,0,10.33h13.88l26.19,26.19a5.15,5.15,0,0,0,3.65,1.51h16.06l24.9,24.9a5.16,5.16,0,0,0,3.65,1.52h20.06L278,315.33a5.15,5.15,0,0,0,3.65,1.51H440.44a11.15,11.15,0,1,0,9.85-16.33Z" transform="translate(-99.72 -89.13)"/></g><g id="Layer_3" data-name="Layer 3"><path class="cls-5" d="M112.23,394.93c3.26,3.26,41.45,28.55,41.45,28.55v15S115,412,111.53,409.28c-5.59-4.4-5.59-9.09-5.59-9.09v-15S108.5,391.21,112.23,394.93Z" transform="translate(-99.72 -89.13)"/><polygon class="cls-5" points="68.53 326.66 53.97 334.35 53.97 349.39 68.53 341.71 68.53 326.66"/><polygon class="cls-5" points="153.46 328 137.5 336.39 137.5 351.43 153.46 343.05 153.46 328"/><polygon class="cls-5" points="208.36 299.68 192.4 308.06 192.4 323.11 208.36 314.72 208.36 299.68"/><polygon class="cls-5" points="566.01 325.26 552.15 332.25 552.15 347.29 566.01 340.31 566.01 325.26"/><polygon class="cls-5" points="480.05 308.43 468.51 300.15 468.51 315.2 480.05 323.47 480.05 308.43"/><polygon class="cls-5" points="500.9 297.92 480.05 308.43 480.05 323.47 500.9 312.96 500.9 297.92"/><polygon class="cls-5" points="537.66 279.24 515.63 291 527.69 299.47 537.66 294.28 537.66 279.24"/><polygon class="cls-5" points="552.15 332.25 500.9 297.92 500.9 312.96 552.15 347.29 552.15 332.25"/><path class="cls-5" d="M525.54,388.18,506.1,398.65S490.61,407,489,407.89a21,21,0,0,0,7.92,4,66.26,66.26,0,0,0,9.22,1.79c3.24-1.39,19.44-10.48,19.44-10.48Z" transform="translate(-99.72 -89.13)"/><path class="cls-5" d="M378.39,370.17s-12.94,6.44-19.21,9.67-9.4,5.76-10.49,9c-.48,1.42-.6,6.91,3.74,9.69a32.35,32.35,0,0,1,6.75-3.62l19.21-9.67Z" transform="translate(-99.72 -89.13)"/><path class="cls-5" d="M500.23,371.39s-12.94,6.44-19.21,9.67-9.41,5.76-10.49,9c-.48,1.42.09,6.91,4.43,9.69A32.26,32.26,0,0,1,481,396.1l19.21-9.67Z" transform="translate(-99.72 -89.13)"/><path class="cls-5" d="M428.36,405.42s-23.71,11.82-26.43,13-9.2,4-11.44,4.59a74.78,74.78,0,0,1-13,.93c-2.15-.21-10.52-1-13-1.57a70.83,70.83,0,0,1-11.54-4.92c-2.65-1.46-8-5.62-10.37-7.26s-8.44-5.78-9.77-7.78c-1.14-1.73-4.34-9.41-4.34-9.41v15.05s2.61,7.67,4.34,9.4,8.47,7.67,9.77,8.49,8.33,5.69,10.37,6.56,9.56,4.68,11.54,4.91,10.21,1.57,13,1.57,10.61,0,13-.93,9.6-3.69,11.44-4.59l26.43-13Z" transform="translate(-99.72 -89.13)"/><path class="cls-5" d="M550.89,406.12s-23.71,11.82-26.43,13-9.19,4-11.44,4.59a74.75,74.75,0,0,1-13,.94c-2.15-.21-10.52-1-13-1.57a71.72,71.72,0,0,1-11.54-4.92c-2.66-1.46-7.35-4.22-9.67-5.86s-9.14-7.19-10.47-9.18c-1.15-1.73-3.64-9.41-3.64-9.41v15.05s1.91,7.67,3.64,9.4,9.17,9.06,10.47,9.88,7.63,4.3,9.67,5.17,9.56,4.67,11.54,4.91,10.2,1.57,13,1.57,10.61,0,13-.93,9.61-3.69,11.44-4.59l26.43-13Z" transform="translate(-99.72 -89.13)"/><polygon class="cls-5" points="172.06 301.88 153 311.39 146.45 314.66 153 326.44 172.06 316.93 172.06 301.88"/><polygon class="cls-5" points="192.4 308.06 172.06 301.88 172.06 316.93 192.4 323.11 192.4 308.06"/><polygon class="cls-5" points="137.5 336.39 103.59 279.93 103.59 294.97 137.5 351.43 137.5 336.39"/><polygon class="cls-5" points="83.08 289.95 55.78 303.76 43.98 309.73 55.78 318.8 83.08 305 83.08 289.95"/><path class="cls-5" d="M158,362.05s-22.82,11.5-27.41,14-5.64,5-5.64,7.4,2.11,5.16,5.64,7.64l27.41-14Z" transform="translate(-99.72 -89.13)"/><path class="cls-5" d="M226.67,375.16s9.83,16.41,10.55,17.71,3,1.3,4.2.68l14.64-7.48c1-.52.32-1.45-1-2S226.67,375.16,226.67,375.16Z" transform="translate(-99.72 -89.13)"/><path class="cls-7" d="M99.72,475.66h10.4v3.89h-6.44v3.8h6.44v3.83h-6.44v9.44h-4Z" transform="translate(-99.72 -89.13)"/><path class="cls-7" d="M114.76,474.73a2.39,2.39,0,0,1,1.75.74,2.56,2.56,0,0,1,0,3.57,2.34,2.34,0,0,1-1.73.73A2.39,2.39,0,0,1,113,479a2.5,2.5,0,0,1-.73-1.82,2.39,2.39,0,0,1,.72-1.75A2.35,2.35,0,0,1,114.76,474.73Zm-2,6.38h3.89v15.51h-3.89Z" transform="translate(-99.72 -89.13)"/><path class="cls-7" d="M119.81,475.13h3.89v21.49h-3.89Z" transform="translate(-99.72 -89.13)"/><path class="cls-7" d="M142.76,490H130.27a4.17,4.17,0,0,0,1.44,2.63,4.56,4.56,0,0,0,3,1,5.19,5.19,0,0,0,3.75-1.52l3.28,1.54a7.79,7.79,0,0,1-2.94,2.57,9.11,9.11,0,0,1-4.06.83,8,8,0,0,1-5.94-2.3,7.82,7.82,0,0,1-2.3-5.76,8.1,8.1,0,0,1,2.29-5.89,7.71,7.71,0,0,1,5.74-2.35,8,8,0,0,1,5.95,2.35,8.46,8.46,0,0,1,2.3,6.19Zm-3.89-3.06a3.83,3.83,0,0,0-1.52-2.11,4.39,4.39,0,0,0-2.63-.81,4.65,4.65,0,0,0-2.86.91,5,5,0,0,0-1.42,2Z" transform="translate(-99.72 -89.13)"/><path class="cls-7" d="M160.9,475.66h4l8.06,21h-4.14l-1.64-4.32h-8.55L157,496.62h-4.15Zm2,5.55-2.81,7.2h5.61Z" transform="translate(-99.72 -89.13)"/><path class="cls-7" d="M175.66,481.11h3.89v1.59a9.31,9.31,0,0,1,2.4-1.55,5.8,5.8,0,0,1,2.2-.44,5.34,5.34,0,0,1,3.91,1.61,5.55,5.55,0,0,1,1.35,4.05v10.25h-3.85v-6.79a16.93,16.93,0,0,0-.25-3.69,2.3,2.3,0,0,0-2.39-1.86,2.86,2.86,0,0,0-2,.79,4.21,4.21,0,0,0-1.17,2.18,18.08,18.08,0,0,0-.17,3.15v6.22h-3.89Z" transform="translate(-99.72 -89.13)"/><path class="cls-7" d="M204.61,481.11h3.89v15.51h-3.89V495a7.74,7.74,0,0,1-2.28,1.56,6.56,6.56,0,0,1-2.48.47,6.87,6.87,0,0,1-5.2-2.33,8.12,8.12,0,0,1-2.19-5.79,8.34,8.34,0,0,1,2.12-5.88,6.75,6.75,0,0,1,5.15-2.3,6.6,6.6,0,0,1,2.62.53,7.19,7.19,0,0,1,2.26,1.58Zm-4.09,3.2a3.91,3.91,0,0,0-3,1.27,4.58,4.58,0,0,0-1.2,3.27,4.66,4.66,0,0,0,1.22,3.31,3.94,3.94,0,0,0,3,1.29,4,4,0,0,0,3-1.27,4.69,4.69,0,0,0,1.2-3.34,4.54,4.54,0,0,0-1.2-3.28A4.06,4.06,0,0,0,200.52,484.31Z" transform="translate(-99.72 -89.13)"/><path class="cls-7" d="M212,475.13h3.89v21.49H212Z" transform="translate(-99.72 -89.13)"/><path class="cls-7" d="M217.71,481.11h4l4,9.73,4.44-9.73h4l-9.71,21.18h-4l3.18-6.83Z" transform="translate(-99.72 -89.13)"/><path class="cls-7" d="M245.85,483.28l-2.41,2.41a4.09,4.09,0,0,0-2.67-1.46,1.69,1.69,0,0,0-1,.28.84.84,0,0,0-.37.69.89.89,0,0,0,.23.58,4.62,4.62,0,0,0,1.16.72l1.43.71a8.38,8.38,0,0,1,3.09,2.27,4.71,4.71,0,0,1-.68,6.15,5.79,5.79,0,0,1-4.06,1.38,6.46,6.46,0,0,1-5.42-2.65l2.4-2.6a5.55,5.55,0,0,0,1.6,1.29,3.64,3.64,0,0,0,1.63.49,1.93,1.93,0,0,0,1.24-.37,1.1,1.1,0,0,0,.47-.86c0-.6-.57-1.18-1.7-1.75l-1.31-.66c-2.5-1.26-3.76-2.84-3.76-4.74a4.09,4.09,0,0,1,1.42-3.14,5.14,5.14,0,0,1,3.63-1.31,6.34,6.34,0,0,1,2.84.67A6.24,6.24,0,0,1,245.85,483.28Z" transform="translate(-99.72 -89.13)"/><path class="cls-7" d="M250.71,474.73a2.41,2.41,0,0,1,1.76.74,2.48,2.48,0,0,1,.73,1.8,2.41,2.41,0,0,1-.73,1.77,2.34,2.34,0,0,1-1.73.73A2.42,2.42,0,0,1,249,479a2.5,2.5,0,0,1-.73-1.82,2.48,2.48,0,0,1,2.47-2.48Zm-1.94,6.38h3.89v15.51h-3.89Z" transform="translate(-99.72 -89.13)"/><path class="cls-7" d="M265.68,483.28l-2.41,2.41a4.07,4.07,0,0,0-2.66-1.46,1.73,1.73,0,0,0-1,.28.84.84,0,0,0-.37.69.85.85,0,0,0,.24.58,4.25,4.25,0,0,0,1.16.72l1.42.71a8.38,8.38,0,0,1,3.09,2.27,4.72,4.72,0,0,1-.67,6.15,5.82,5.82,0,0,1-4.07,1.38,6.44,6.44,0,0,1-5.41-2.65l2.39-2.6a5.55,5.55,0,0,0,1.6,1.29,3.64,3.64,0,0,0,1.63.49,1.91,1.91,0,0,0,1.24-.37,1.07,1.07,0,0,0,.47-.86c0-.6-.56-1.18-1.69-1.75l-1.31-.66q-3.76-1.89-3.77-4.74A4.13,4.13,0,0,1,257,482a5.17,5.17,0,0,1,3.63-1.31,6.31,6.31,0,0,1,2.84.67A6.24,6.24,0,0,1,265.68,483.28Z" transform="translate(-99.72 -89.13)"/><path class="cls-7" d="M288.63,481.11h3.89v15.51h-3.89V495a7.74,7.74,0,0,1-2.28,1.56,6.52,6.52,0,0,1-2.48.47,6.87,6.87,0,0,1-5.2-2.33,8.12,8.12,0,0,1-2.19-5.79A8.34,8.34,0,0,1,278.6,483a6.75,6.75,0,0,1,5.15-2.3,6.6,6.6,0,0,1,2.62.53,7.08,7.08,0,0,1,2.26,1.58Zm-4.09,3.2a3.91,3.91,0,0,0-3,1.27,4.57,4.57,0,0,0-1.19,3.27,4.66,4.66,0,0,0,1.21,3.31,3.94,3.94,0,0,0,3,1.29,4,4,0,0,0,3-1.27,4.69,4.69,0,0,0,1.2-3.34,4.54,4.54,0,0,0-1.2-3.28A4,4,0,0,0,284.54,484.31Z" transform="translate(-99.72 -89.13)"/><path class="cls-7" d="M296.46,481.11h3.89v1.59a9.44,9.44,0,0,1,2.39-1.55,5.83,5.83,0,0,1,2.2-.44,5.32,5.32,0,0,1,3.91,1.61,5.55,5.55,0,0,1,1.35,4.05v10.25h-3.84v-6.79a16.93,16.93,0,0,0-.25-3.69,2.57,2.57,0,0,0-.87-1.39,2.47,2.47,0,0,0-1.53-.47,2.84,2.84,0,0,0-2,.79,4.08,4.08,0,0,0-1.17,2.18,17.09,17.09,0,0,0-.17,3.15v6.22h-3.89Z" transform="translate(-99.72 -89.13)"/><path class="cls-7" d="M325.41,475.13h3.89v21.49h-3.89V495a7.65,7.65,0,0,1-2.29,1.56,6.52,6.52,0,0,1-2.48.47,6.87,6.87,0,0,1-5.19-2.33,8.08,8.08,0,0,1-2.2-5.79,8.34,8.34,0,0,1,2.12-5.88,6.79,6.79,0,0,1,5.16-2.3,6.51,6.51,0,0,1,2.61.53,7.23,7.23,0,0,1,2.27,1.58Zm-4.09,9.18a3.94,3.94,0,0,0-3,1.27,5.11,5.11,0,0,0,0,6.58,4,4,0,0,0,3,1.29,4,4,0,0,0,3-1.27,4.65,4.65,0,0,0,1.21-3.34,4.5,4.5,0,0,0-1.21-3.28A4,4,0,0,0,321.32,484.31Z" transform="translate(-99.72 -89.13)"/><path class="cls-7" d="M361.08,479.34,358.29,482a8.61,8.61,0,0,0-6.4-3,7,7,0,0,0-7.12,7.12,7.46,7.46,0,0,0,.91,3.72,6.52,6.52,0,0,0,2.58,2.55,7.45,7.45,0,0,0,3.7.93,7.61,7.61,0,0,0,3.17-.65,11.2,11.2,0,0,0,3.16-2.36l2.71,2.82a14.82,14.82,0,0,1-4.39,3.15,12.08,12.08,0,0,1-4.72.87,10.89,10.89,0,0,1-8-3.09,11.68,11.68,0,0,1-1.69-13.52,10.57,10.57,0,0,1,4.06-3.92,11.42,11.42,0,0,1,5.69-1.48,12,12,0,0,1,9.13,4.21Z" transform="translate(-99.72 -89.13)"/><path class="cls-7" d="M371.43,480.71a8.2,8.2,0,0,1,4.12,1.1,8,8,0,0,1,4.1,7,8.09,8.09,0,0,1-1.09,4.1,7.9,7.9,0,0,1-3,3,8.18,8.18,0,0,1-4.15,1.07,7.73,7.73,0,0,1-5.69-2.37,8.17,8.17,0,0,1,5.68-13.93Zm.06,3.67a4,4,0,0,0-3,1.26,4.47,4.47,0,0,0-1.2,3.22,4.57,4.57,0,0,0,1.19,3.28,4,4,0,0,0,3,1.26,4.05,4.05,0,0,0,3-1.27,5,5,0,0,0,0-6.51A4,4,0,0,0,371.49,484.38Z" transform="translate(-99.72 -89.13)"/><path class="cls-7" d="M382.83,481.11h3.89v1.59a9.44,9.44,0,0,1,2.39-1.55,5.83,5.83,0,0,1,2.2-.44,5.32,5.32,0,0,1,3.91,1.61,5.51,5.51,0,0,1,1.36,4.05v10.25h-3.85v-6.79a16.93,16.93,0,0,0-.25-3.69,2.51,2.51,0,0,0-.87-1.39,2.47,2.47,0,0,0-1.53-.47,2.84,2.84,0,0,0-2,.79,4.21,4.21,0,0,0-1.17,2.18,17.09,17.09,0,0,0-.17,3.15v6.22h-3.89Z" transform="translate(-99.72 -89.13)"/><path class="cls-7" d="M400.81,475.4h3.89v5.71H407v3.35H404.7v12.16h-3.89V484.46h-2v-3.35h2Z" transform="translate(-99.72 -89.13)"/><path class="cls-7" d="M424.62,490h-12.5a4.14,4.14,0,0,0,1.45,2.63,4.53,4.53,0,0,0,3,1,5.15,5.15,0,0,0,3.74-1.52l3.28,1.54a7.77,7.77,0,0,1-2.93,2.57,9.15,9.15,0,0,1-4.07.83,8,8,0,0,1-5.94-2.3,7.81,7.81,0,0,1-2.29-5.76,8.06,8.06,0,0,1,2.29-5.89,7.68,7.68,0,0,1,5.73-2.35,8,8,0,0,1,6,2.35,8.45,8.45,0,0,1,2.29,6.19Zm-3.89-3.06a3.93,3.93,0,0,0-1.52-2.11,4.44,4.44,0,0,0-2.64-.81,4.64,4.64,0,0,0-2.85.91,5.14,5.14,0,0,0-1.43,2Z" transform="translate(-99.72 -89.13)"/><path class="cls-7" d="M427.77,481.11h3.88v1.59a9.65,9.65,0,0,1,2.4-1.55,5.83,5.83,0,0,1,2.2-.44,5.32,5.32,0,0,1,3.91,1.61,5.55,5.55,0,0,1,1.35,4.05v10.25h-3.84v-6.79a17.62,17.62,0,0,0-.25-3.69,2.57,2.57,0,0,0-.87-1.39,2.47,2.47,0,0,0-1.53-.47,2.84,2.84,0,0,0-2,.79,4.08,4.08,0,0,0-1.17,2.18,16.77,16.77,0,0,0-.18,3.15v6.22h-3.88Z" transform="translate(-99.72 -89.13)"/><path class="cls-7" d="M445.75,475.4h3.89v5.71h2.3v3.35h-2.3v12.16h-3.89V484.46h-2v-3.35h2Z" transform="translate(-99.72 -89.13)"/><path class="cls-7" d="M462.63,475.66h11.44v3.9h-7.48v3.79h7.48v3.83h-7.48v5.52h7.48v3.92H462.63Z" transform="translate(-99.72 -89.13)"/><path class="cls-7" d="M476,481.11h4.51l3.07,4.23,3.05-4.23H491l-5.27,7.3,6,8.21h-4.51l-3.69-5.09-3.67,5.09h-4.44l5.89-8.16Z" transform="translate(-99.72 -89.13)"/><path class="cls-7" d="M497.57,481.11v1.71a7.27,7.27,0,0,1,2.28-1.58,6.56,6.56,0,0,1,2.62-.53,6.79,6.79,0,0,1,5.16,2.3,8.34,8.34,0,0,1,2.12,5.88,8.08,8.08,0,0,1-2.2,5.79,6.87,6.87,0,0,1-5.2,2.33,6.61,6.61,0,0,1-2.49-.47,7.65,7.65,0,0,1-2.29-1.56v7.31h-3.86V481.11Zm4.09,3.2a4,4,0,0,0-3.05,1.25,4.5,4.5,0,0,0-1.21,3.28,4.65,4.65,0,0,0,1.21,3.34,4,4,0,0,0,3.05,1.27,4,4,0,0,0,3-1.29,5.09,5.09,0,0,0,0-6.58A4,4,0,0,0,501.66,484.31Z" transform="translate(-99.72 -89.13)"/><path class="cls-7" d="M512.54,475.13h3.89v21.49h-3.89Z" transform="translate(-99.72 -89.13)"/><path class="cls-7" d="M527.24,480.71a8.24,8.24,0,0,1,4.13,1.1,8.08,8.08,0,0,1,4.1,7,8.2,8.2,0,0,1-1.09,4.1,7.9,7.9,0,0,1-3,3,8.2,8.2,0,0,1-4.15,1.07,7.73,7.73,0,0,1-5.69-2.37,8.16,8.16,0,0,1,5.67-13.93Zm.07,3.67a4,4,0,0,0-3,1.26,4.48,4.48,0,0,0-1.21,3.22,4.54,4.54,0,0,0,1.2,3.28,4,4,0,0,0,3,1.26,4.07,4.07,0,0,0,3.05-1.27,4.57,4.57,0,0,0,1.21-3.27,4.51,4.51,0,0,0-1.19-3.24A4,4,0,0,0,527.31,484.38Z" transform="translate(-99.72 -89.13)"/><path class="cls-7" d="M537.73,481.11h3.34v2a4.23,4.23,0,0,1,1.43-1.76,3.49,3.49,0,0,1,2-.6,3.73,3.73,0,0,1,1.58.4l-1.21,3.35a2.61,2.61,0,0,0-1.12-.34,1.78,1.78,0,0,0-1.52,1.11,10.23,10.23,0,0,0-.62,4.36v7h-3.86Z" transform="translate(-99.72 -89.13)"/><path class="cls-7" d="M559.42,481.11h3.89v15.51h-3.89V495a7.65,7.65,0,0,1-2.29,1.56,6.52,6.52,0,0,1-2.48.47,6.9,6.9,0,0,1-5.2-2.33,8.12,8.12,0,0,1-2.19-5.79,8.34,8.34,0,0,1,2.12-5.88,6.79,6.79,0,0,1,5.16-2.3,6.51,6.51,0,0,1,2.61.53,7.23,7.23,0,0,1,2.27,1.58Zm-4.09,3.2a3.94,3.94,0,0,0-3,1.27,5.11,5.11,0,0,0,0,6.58,4,4,0,0,0,3,1.29,4,4,0,0,0,3-1.27,4.65,4.65,0,0,0,1.21-3.34,4.5,4.5,0,0,0-1.21-3.28A4,4,0,0,0,555.33,484.31Z" transform="translate(-99.72 -89.13)"/><path class="cls-7" d="M567.71,475.4h3.89v5.71h2.31v3.35H571.6v12.16h-3.89V484.46h-2v-3.35h2Z" transform="translate(-99.72 -89.13)"/><path class="cls-7" d="M577.5,474.73a2.4,2.4,0,0,1,1.76.74,2.56,2.56,0,0,1,0,3.57,2.36,2.36,0,0,1-1.74.73,2.42,2.42,0,0,1-1.77-.74,2.55,2.55,0,0,1-.73-1.82,2.49,2.49,0,0,1,2.47-2.48Zm-1.94,6.38h3.89v15.51h-3.89Z" transform="translate(-99.72 -89.13)"/><path class="cls-7" d="M590.26,480.71a8.24,8.24,0,0,1,4.13,1.1,7.9,7.9,0,0,1,3,3,8,8,0,0,1,1.09,4.06,8.2,8.2,0,0,1-1.09,4.1,7.85,7.85,0,0,1-3,3,8.14,8.14,0,0,1-4.14,1.07,7.73,7.73,0,0,1-5.69-2.37,8.16,8.16,0,0,1,5.67-13.93Zm.07,3.67a4,4,0,0,0-3,1.26,4.48,4.48,0,0,0-1.21,3.22,4.57,4.57,0,0,0,1.19,3.28,4.26,4.26,0,0,0,6.06,0,5,5,0,0,0,0-6.51A4.06,4.06,0,0,0,590.33,484.38Z" transform="translate(-99.72 -89.13)"/><path class="cls-7" d="M601.66,481.11h3.89v1.59a9.31,9.31,0,0,1,2.4-1.55,5.83,5.83,0,0,1,2.2-.44,5.34,5.34,0,0,1,3.91,1.61,5.55,5.55,0,0,1,1.35,4.05v10.25h-3.85v-6.79a17.86,17.86,0,0,0-.24-3.69,2.57,2.57,0,0,0-.87-1.39,2.47,2.47,0,0,0-1.53-.47,2.82,2.82,0,0,0-2,.79,4.15,4.15,0,0,0-1.18,2.18,18.08,18.08,0,0,0-.17,3.15v6.22h-3.89Z" transform="translate(-99.72 -89.13)"/><path class="cls-7" d="M625.7,475.66h11.58v3.93h-3.82v17h-4v-17H625.7Z" transform="translate(-99.72 -89.13)"/><path class="cls-7" d="M646.87,480.71a8.27,8.27,0,0,1,4.13,1.1,8,8,0,0,1,4.09,7A8.09,8.09,0,0,1,654,493a7.76,7.76,0,0,1-3,3,8.14,8.14,0,0,1-4.14,1.07,7.76,7.76,0,0,1-5.7-2.37,8.17,8.17,0,0,1,5.68-13.93Zm.07,3.67a4,4,0,0,0-3,1.26,4.44,4.44,0,0,0-1.21,3.22,4.57,4.57,0,0,0,1.19,3.28,4,4,0,0,0,3,1.26,4.05,4.05,0,0,0,3-1.27,4.53,4.53,0,0,0,1.21-3.27,4.47,4.47,0,0,0-1.19-3.24A4,4,0,0,0,646.94,484.38Z" transform="translate(-99.72 -89.13)"/><path class="cls-7" d="M665.55,480.71a8.27,8.27,0,0,1,4.13,1.1,8,8,0,0,1,4.09,7,8.09,8.09,0,0,1-1.09,4.1,7.83,7.83,0,0,1-3,3,8.15,8.15,0,0,1-4.15,1.07,7.73,7.73,0,0,1-5.69-2.37,8.17,8.17,0,0,1,5.68-13.93Zm.06,3.67a4,4,0,0,0-3,1.26,4.44,4.44,0,0,0-1.21,3.22,4.57,4.57,0,0,0,1.19,3.28,4,4,0,0,0,3,1.26,4.05,4.05,0,0,0,3-1.27,4.53,4.53,0,0,0,1.21-3.27,4.47,4.47,0,0,0-1.19-3.24A4,4,0,0,0,665.61,484.38Z" transform="translate(-99.72 -89.13)"/><path class="cls-7" d="M676.52,475.13h3.89v21.49h-3.89Z" transform="translate(-99.72 -89.13)"/></g></svg>